<svg xmlns="http://www.w3.org/2000/svg" width="83" height="83" viewBox="0 0 83 83">
  <g id="Grupo_522" data-name="Grupo 522" transform="translate(-1044 -1393)">
    <g id="Grupo_52" data-name="Grupo 52" transform="translate(57 -805)">
      <g id="Frame_387" data-name="Frame 387" transform="translate(987 2198)">
        <path id="Frame_387_Background_" data-name="Frame 387 (Background)" d="M0,0H83V83H0Z" fill="#50a5dd"/>
      </g>
      <path id="Trazado_194" data-name="Trazado 194" d="M50.261,20.575l-6.3-6.3a.99.99,0,0,0-1.684.558,3.962,3.962,0,1,1-4.483-4.483.99.99,0,0,0,.558-1.684l-6.3-6.3a.99.99,0,0,0-1.4,0l-5.47,5.468A5.943,5.943,0,1,0,17.9,15.111L12.44,20.575a.99.99,0,0,0,0,1.4l5.467,5.473a5.943,5.943,0,0,0-.72,11.235l-2.313,6.671a4.952,4.952,0,0,0,.17,4.365l3.477,8.221a.793.793,0,0,0,.045.092,3.024,3.024,0,0,1,.369,1.455v.951a.99.99,0,0,0,1.981,0v-.951a5.014,5.014,0,0,0-.594-2.361l-3.478-8.221a.891.891,0,0,0-.048-.1,3.007,3.007,0,0,1-.087-2.718l2.423-6.973c.1,0,.206.015.311.015a5.932,5.932,0,0,0,5.736-4.4l1.68,1.673V46.573a.99.99,0,0,0,1.981,0V32.706a2.971,2.971,0,1,1,5.943,0v12a8.964,8.964,0,0,0,.941,3.987l.363.727a6.959,6.959,0,0,1,0,6.2L35.1,57.6a2.985,2.985,0,0,0-.313,1.329V60.44a.99.99,0,0,0,1.981,0V58.926a1.009,1.009,0,0,1,.1-.443l.99-1.981a8.95,8.95,0,0,0,0-7.972l-.363-.727a6.968,6.968,0,0,1-.68-2.273,6.913,6.913,0,0,0,4.906,2.033,2.971,2.971,0,0,0,2.971-2.971V38.946a5.937,5.937,0,0,0,.108-11.5l5.466-5.473a.99.99,0,0,0,0-1.4ZM41.716,45.582a4.958,4.958,0,0,1-4.952-4.952V35.479l.757-.757A5.927,5.927,0,0,0,42.707,39.1v5.491A.99.99,0,0,1,41.716,45.582Zm.142-17.994a.99.99,0,0,0,.844,1.684,3.962,3.962,0,1,1-3.368,3.368A.99.99,0,0,0,37.65,31.8l-.886.888a4.952,4.952,0,1,0-9.9.022v.9l-1.816-1.816a.99.99,0,0,0-1.684.844,3.962,3.962,0,1,1-3.368-3.368.99.99,0,0,0,.845-1.684l-6.3-6.3,6.3-6.3A.99.99,0,0,0,20,13.292a3.962,3.962,0,0,1-3.356-6.719,4.061,4.061,0,0,1,5.6,0,3.962,3.962,0,0,1,1.117,3.356.99.99,0,0,0,1.684.844l6.308-6.3L35.794,8.91a5.943,5.943,0,1,0,7.924,7.924l4.439,4.438Z" transform="translate(999.903 2210.028)" fill="#fff"/>
      <path id="Trazado_195" data-name="Trazado 195" d="M60.933,22.981H54.99a.99.99,0,1,1,0-1.981h5.943a.99.99,0,1,1,0,1.981Z" transform="translate(999.506 2209.848)" fill="#fff"/>
      <path id="Trazado_196" data-name="Trazado 196" d="M53.909,11.452a.99.99,0,0,1-.5-1.848l5.151-2.971a.99.99,0,1,1,.991,1.716L54.4,11.32a.983.983,0,0,1-.5.133Z" transform="translate(999.516 2209.986)" fill="#fff"/>
      <path id="Trazado_197" data-name="Trazado 197" d="M59.055,37.452a.983.983,0,0,1-.5-.133l-5.151-2.971a.99.99,0,1,1,.991-1.716L59.55,35.6a.99.99,0,0,1-.5,1.848Z" transform="translate(999.516 2209.739)" fill="#fff"/>
      <path id="Trazado_198" data-name="Trazado 198" d="M8.933,22.981H2.99A.99.99,0,1,1,2.99,21H8.933a.99.99,0,1,1,0,1.981Z" transform="translate(1000 2209.848)" fill="#fff"/>
      <path id="Trazado_199" data-name="Trazado 199" d="M10.022,11.452a.983.983,0,0,1-.5-.133L4.376,8.348a.99.99,0,1,1,.991-1.716L10.517,9.6a.99.99,0,0,1-.5,1.848Z" transform="translate(999.982 2209.986)" fill="#fff"/>
      <path id="Trazado_200" data-name="Trazado 200" d="M4.876,37.452a.99.99,0,0,1-.5-1.848l5.151-2.971a.99.99,0,1,1,.991,1.716L5.372,37.32a.983.983,0,0,1-.5.133Z" transform="translate(999.982 2209.739)" fill="#fff"/>
    </g>
  </g>
</svg>
