<svg xmlns="http://www.w3.org/2000/svg" xmlns:xlink="http://www.w3.org/1999/xlink" width="282.5" height="49.89" viewBox="0 0 282.5 49.89">
  <defs>
    <clipPath id="clip-path">
      <rect id="Rectángulo_49" data-name="Rectángulo 49" width="282.5" height="49.89" fill="none"/>
    </clipPath>
  </defs>
  <g id="Grupo_521" data-name="Grupo 521" transform="translate(-295 -82.055)">
    <g id="Grupo_111" data-name="Grupo 111" transform="translate(295 82.055)">
      <rect id="Rectángulo_47" data-name="Rectángulo 47" width="4.58" height="48.531" transform="translate(42.86 0)" fill="#001d30"/>
      <g id="Grupo_110" data-name="Grupo 110" transform="translate(0 0)">
        <g id="Grupo_109" data-name="Grupo 109" clip-path="url(#clip-path)">
          <path id="Trazado_292" data-name="Trazado 292" d="M311.566,97.837c0-10.253,7.519-17.772,18.182-17.772s18.045,7.519,18.045,17.772v1.5H316.282c.615,7.04,5.878,12.03,13.466,12.03,5.331,0,9.433-2.187,11.62-6.084h4.99c-2.6,6.22-8.749,10.321-16.61,10.321-10.663,0-18.182-7.519-18.182-17.772m31.442-2.6C341.915,88.4,336.583,84.3,329.748,84.3c-7.04,0-12.3,4.306-13.329,10.936Z" transform="translate(-257.504 -66.172)" fill="#001d30"/>
          <path id="Trazado_293" data-name="Trazado 293" d="M530.623,85.088h5.126L548.6,114.479l12.85-29.392h4.99l-15.174,33.766H545.8Z" transform="translate(-438.551 -70.324)" fill="#001d30"/>
          <path id="Trazado_294" data-name="Trazado 294" d="M747.281,97.944c0-10.526,7.519-17.977,18.182-17.977s18.113,7.314,18.113,17.977v16.678h-4.238v-8.339c-2.392,6.015-8,9.228-14.559,9.228-9.5,0-17.5-6.767-17.5-17.567M779,97.739c0-7.792-5.468-13.534-13.534-13.534s-13.534,5.742-13.534,13.534,5.468,13.534,13.534,13.534S779,105.531,779,97.739" transform="translate(-617.615 -66.091)" fill="#001d30"/>
          <path id="Trazado_295" data-name="Trazado 295" d="M997.03,18.178C997.03,7.309,1004.617.2,1015.075.2c10.731,0,18.25,7.519,18.25,17.908s-7.587,17.635-17.5,17.635c-6.425,0-11.688-3.008-14.218-8.134V49.278h-4.58Zm31.647-.205c0-7.792-5.468-13.534-13.534-13.534-8.134,0-13.534,5.742-13.534,13.534s5.4,13.534,13.534,13.534c8.066,0,13.534-5.742,13.534-13.534" transform="translate(-824.028 -0.166)" fill="#50a5dd"/>
          <path id="Trazado_296" data-name="Trazado 296" d="M1236.922,14.622c0-9.706,5.81-14.422,14.218-14.422s14.149,4.716,14.149,14.491v.41h-4.511v-.479c0-7.04-3.9-10.185-9.638-10.185-5.81,0-9.638,3.144-9.638,10.185V34.855h-4.58Z" transform="translate(-1022.295 -0.165)" fill="#50a5dd"/>
          <path id="Trazado_297" data-name="Trazado 297" d="M1418.512,17.972C1418.512,7.72,1426.031.2,1436.694.2s18.182,7.519,18.182,17.771-7.519,17.772-18.182,17.772-18.182-7.519-18.182-17.772m31.716,0c0-7.792-5.468-13.534-13.534-13.534s-13.534,5.742-13.534,13.534,5.468,13.534,13.534,13.534,13.534-5.742,13.534-13.534" transform="translate(-1172.376 -0.166)" fill="#50a5dd"/>
          <rect id="Rectángulo_48" data-name="Rectángulo 48" width="67.898" height="4.325" transform="translate(214.6 44.787)" fill="#001d30"/>
          <path id="Trazado_298" data-name="Trazado 298" d="M31.391,103.394c-1.1,4.329-4.5,7.5-9.649,8.884-7.329,1.964-13.7-1.494-16.12-8.135l23.61-6.326.563,2.1,5.976-5.976-8.163-2.187.563,2.1L4.692,100.146c-.726-6.67,3.244-12.191,10.044-14.013,5.24-1.4,10.231-.065,13.481,3.7l6.4,1.714c-3.536-7.958-11.764-11.979-20.974-9.512C3.339,84.8-1.977,94.007.677,103.911s11.862,15.22,22.162,12.46c7.593-2.034,12.473-7.588,13.372-14.269Z" transform="translate(0 -67.207)" fill="#50a5dd"/>
        </g>
      </g>
    </g>
  </g>
</svg>
