<svg xmlns="http://www.w3.org/2000/svg" width="83" height="83" viewBox="0 0 83 83">
  <g id="Grupo_523" data-name="Grupo 523" transform="translate(-1344 -1393)">
    <g id="Grupo_51" data-name="Grupo 51" transform="translate(57 -805)">
      <g id="Frame_387" data-name="Frame 387" transform="translate(1287 2198)">
        <path id="Frame_387_Background_" data-name="Frame 387 (Background)" d="M0,0H83V83H0Z" fill="#50a5dd"/>
      </g>
      <g id="Grupo_31" data-name="Grupo 31" transform="translate(1297.34 2212.105)">
        <g id="Grupo_30" data-name="Grupo 30" transform="translate(0 0)">
          <path id="Trazado_209" data-name="Trazado 209" d="M49.456,204.042a3.859,3.859,0,0,0-3.86-3.86h-8.8a.573.573,0,0,1-.524-.816,22.413,22.413,0,0,1,4.453-5.824,6.5,6.5,0,0,0-.235-7.5,2.141,2.141,0,0,0-3.364-.091l-3.786,4.5a12.883,12.883,0,0,1-3.447,2.9,14.885,14.885,0,0,0-6.229,6.56,1.5,1.5,0,0,1-1.368.847H20.908a3.565,3.565,0,0,0-3.452-2.713H.985A.986.986,0,0,0,0,199.04V222.6a.986.986,0,0,0,.985.985H17.456a3.565,3.565,0,0,0,3.452-2.712h.55a10.023,10.023,0,0,1,2.963.447l5.223,1.609a12,12,0,0,0,3.544.535h9.948a3.273,3.273,0,0,0,3.248-2.589,3.234,3.234,0,0,0-.366-2.208,3.653,3.653,0,0,0,2.148-3.322,3.611,3.611,0,0,0-.728-2.163,3.826,3.826,0,0,0,.717-6.247,3.824,3.824,0,0,0,1.3-2.889Zm-30.4,15.974a1.6,1.6,0,0,1-1.6,1.6H1.971V200.025H17.456a1.6,1.6,0,0,1,1.6,1.6Zm20.339-14.077a.985.985,0,0,0,0,1.971H45.5a1.957,1.957,0,0,1,1.963,1.572A1.9,1.9,0,0,1,45.6,211.7h-6.2a.985.985,0,0,0,0,1.971h5.041a1.734,1.734,0,0,1,1.738,1.393,1.682,1.682,0,0,1-1.651,1.963H39.391a.985.985,0,0,0,0,1.971H43.23a1.247,1.247,0,0,1,1.218,1.5,1.317,1.317,0,0,1-1.313.993H33.187a10.043,10.043,0,0,1-2.956-.445L25,219.432a12.023,12.023,0,0,0-3.54-.533h-.434V202.738h1.269a3.472,3.472,0,0,0,3.156-1.988,12.919,12.919,0,0,1,5.423-5.68,14.846,14.846,0,0,0,3.973-3.345l3.789-4.5a.177.177,0,0,1,.281.014,4.317,4.317,0,0,1-.453,5.8,20.906,20.906,0,0,0-3.957,5.448,2.549,2.549,0,0,0,2.288,3.666h8.8a1.893,1.893,0,0,1,0,3.786h-6.2Z" transform="translate(0 -164.23)" fill="#fff"/>
          <path id="Trazado_210" data-name="Trazado 210" d="M247.286,26.367a.929.929,0,0,1,.268.822l-.411,2.394a2.9,2.9,0,0,0,4.209,3.054l2.144-1.13a.927.927,0,0,1,.866,0l2.137,1.129a2.9,2.9,0,0,0,4.211-3.048l-.407-2.4h0a.927.927,0,0,1,.267-.819l1.73-1.687a2.9,2.9,0,0,0-1.605-4.944l-2.4-.35a.927.927,0,0,1-.7-.508l-1.072-2.173a2.9,2.9,0,0,0-5.2,0l-1.079,2.179a.926.926,0,0,1-.7.506l-2.395.349a2.9,2.9,0,0,0-1.6,4.947Zm.156-4.68,2.395-.35a2.9,2.9,0,0,0,2.179-1.582l1.079-2.179a.927.927,0,0,1,1.663,0l1.072,2.173a2.9,2.9,0,0,0,2.181,1.586l2.4.35a.927.927,0,0,1,.514,1.583l-1.73,1.687a2.9,2.9,0,0,0-.834,2.56l.407,2.4a.927.927,0,0,1-1.348.975l-2.137-1.129a2.9,2.9,0,0,0-2.706,0l-2.144,1.13a.927.927,0,0,1-1.348-.977l.411-2.394a2.9,2.9,0,0,0-.836-2.568l-1.731-1.685a.926.926,0,0,1,.513-1.582Z" transform="translate(-214.535 -15.089)" fill="#fff"/>
          <path id="Trazado_211" data-name="Trazado 211" d="M411.9,136.631a2.374,2.374,0,0,0-1.315-4.048l-1.739-.254a.4.4,0,0,1-.3-.22l-.777-1.576a2.373,2.373,0,0,0-4.256,0l-.783,1.581a.4.4,0,0,1-.3.219l-1.736.254a2.374,2.374,0,0,0-1.313,4.05l1.255,1.221a.4.4,0,0,1,.116.357l-.3,1.737a2.375,2.375,0,0,0,3.446,2.5l1.555-.82a.4.4,0,0,1,.376,0l1.549.819a2.374,2.374,0,0,0,3.448-2.5l-.3-1.741a.405.405,0,0,1,.116-.356Zm-1.376-1.411-1.255,1.224a2.376,2.376,0,0,0-.682,2.1h0l.3,1.741a.4.4,0,0,1-.585.422l-1.549-.819a2.374,2.374,0,0,0-2.215,0l-1.555.82a.4.4,0,0,1-.584-.424l.3-1.737a2.375,2.375,0,0,0-.685-2.1l-1.256-1.222a.4.4,0,0,1,.223-.687l1.737-.253a2.374,2.374,0,0,0,1.784-1.3l.783-1.581a.4.4,0,0,1,.721,0l.777,1.576a2.375,2.375,0,0,0,1.786,1.3l1.739.254A.4.4,0,0,1,410.52,135.22Z" transform="translate(-349.545 -115.151)" fill="#fff"/>
          <path id="Trazado_212" data-name="Trazado 212" d="M129.533,137.853a.4.4,0,0,1,.116.357l-.3,1.737a2.374,2.374,0,0,0,3.446,2.5l1.555-.82a.4.4,0,0,1,.376,0l1.549.819a2.373,2.373,0,0,0,3.448-2.5l-.3-1.741a.405.405,0,0,1,.116-.356l1.254-1.223a2.374,2.374,0,0,0-1.315-4.048l-1.739-.254a.4.4,0,0,1-.3-.22l-.777-1.576a2.373,2.373,0,0,0-4.256,0l-.783,1.581a.4.4,0,0,1-.3.219l-1.736.254a2.374,2.374,0,0,0-1.313,4.05Zm.342-3.32,1.737-.253a2.373,2.373,0,0,0,1.784-1.3l.783-1.581a.4.4,0,0,1,.721,0l.777,1.576a2.375,2.375,0,0,0,1.786,1.3l1.739.254a.4.4,0,0,1,.223.686l-1.255,1.224a2.376,2.376,0,0,0-.682,2.1h0l.3,1.741a.4.4,0,0,1-.585.422l-1.549-.819a2.374,2.374,0,0,0-2.215,0l-1.555.82a.4.4,0,0,1-.584-.424l.3-1.737a2.375,2.375,0,0,0-.685-2.1l-1.256-1.222A.4.4,0,0,1,129.874,134.533Z" transform="translate(-111.843 -115.151)" fill="#fff"/>
        </g>
      </g>
    </g>
  </g>
</svg>
